<?xml version="1.0" encoding="utf-8"?>
<!-- Generator: Adobe Illustrator 25.4.1, SVG Export Plug-In . SVG Version: 6.00 Build 0)  -->
<svg version="1.1" xmlns="http://www.w3.org/2000/svg" xmlns:xlink="http://www.w3.org/1999/xlink" x="0px" y="0px"
	 viewBox="0 0 1080 1080" style="enable-background:new 0 0 1080 1080;" xml:space="preserve">
<style type="text/css">
	.st0{display:none;}
	.st1{display:inline;fill:#0C0A09;}
	.st2{clip-path:url(#SVGID_00000078030236343610495470000013878338973181573527_);}
	.st3{opacity:0.75;fill:url(#SVGID_00000181053256663803633290000017722363478985873823_);}
	.st4{fill:url(#SVGID_00000039812660194780959530000003987774908518893959_);}
	.st5{fill:url(#SVGID_00000168816210574887564330000018262602372297338044_);}
	.st6{fill:#E0003B;}
	.st7{fill:#F76400;}
</style>
<g id="BACKGROUND" class="st0">
	<rect class="st1" width="1080" height="1080"/>
</g>
<g id="LOGO_00000139269637393414584210000006256269713214926988_">
	<g>
		<g>
			<defs>
				<path id="SVGID_1_" d="M152.4,937c-3.8-20.6-18.5-31.5-41.3-31.5c-21.1,0-34.4,10.4-34.4,24.8c0,13.8,11.8,18.4,27.5,22.2
					l32.4,7.7c30.4,7.6,61.6,15.6,61.6,60.5c0,40.7-36.8,59.3-80.8,59.3c-48.1,0-82.5-22.7-88.2-65.3l40.9-4.1
					c3.1,28,23.7,37.9,47.8,37.9c22.2,0,38.2-9.7,38.2-26.4c0-17-12.8-21.4-32.7-26.3l-32.1-8.1c-27-6.9-55.6-16.5-55.6-55.2
					c0-37,33.3-58,76.7-58c43.8,0,72.3,21.3,80.4,59.8L152.4,937z M362,1032.3c-5.7,20.7-25.1,46.7-71.3,46.7
					c-44.8,0-73.1-29.7-73.1-76.1c0-46.8,27.4-76.6,72.9-76.6c45.7,0,76.4,30,72.7,84.6H256.9c0.5,24.1,13.5,40.8,33.8,40.8
					c21.1,0,29.2-13.1,32-22.6L362,1032.3z M290.5,953.1c-20.5,0-31.7,14.9-33.1,32.9h66.5C322.5,968,311.2,953.1,290.5,953.1
					L290.5,953.1z M454.6,1050.1c20.9,0,28.8-15.4,32-28.3l39.1,4.5c-6.1,24.3-25.3,52.7-71.1,52.7c-45.1,0-73-29.5-73-76.3
					c0-46.8,27.9-76.5,73-76.5c45.6,0,63.5,28.6,68.8,46.1l-37.5,8.3c-3.2-10.5-11.1-25.4-31.3-25.4c-20.5,0-33.7,16.1-33.7,47.5
					S434.1,1050.1,454.6,1050.1L454.6,1050.1z M614.6,1045.6c3.9,0,8.8,0,12.3-0.2v30.2c-3.7,0.4-15.8,0.6-25.3,0.6
					c-29.7,0-42.6-6.4-42.6-35.3v-85.2h-23.2v-26H559V889h38.6v40.7H628v26h-30.4v75.6C597.6,1044.2,602.6,1045.6,614.6,1045.6
					L614.6,1045.6z M788.1,1002.7c0,46.7-28.4,76.3-74.4,76.3c-46.3,0-74.6-29.5-74.6-76.3c0-46.8,28.3-76.5,74.6-76.5
					C759.6,926.3,788.1,955.9,788.1,1002.7z M748.7,1002.7c0-31.3-13.7-47.5-35.1-47.5c-21.7,0-35.3,16.1-35.3,47.5
					c0,31.3,13.7,47.3,35.3,47.3C735.1,1050,748.7,1034.1,748.7,1002.7z M849.4,952h1.1c7.7-15,22.4-25.8,43.9-25.8
					c3.6,0,7.5,0.5,10.2,1.2v36.1c-3.6-0.5-9.5-1.1-15.2-1.1c-22,0-38.3,9.7-38.3,39.5v73.7h-38.6V929.7h36.9V952z M1011.4,973.8
					c-3.1-14.4-14.7-21.9-28.8-21.9c-14,0-23.8,6.1-23.8,17.3c0,10.5,10.6,13.5,25.6,16l14.9,2.3c26.1,4.4,51.5,12.2,51.5,44.8
					c0,31.9-29,46.6-67,46.6c-38.2,0-64.4-17.5-69.4-45.9l36-5.1c3.5,17.4,15.8,25.4,33.9,25.4c16.3,0,27.2-7.3,27.2-19.5
					c0-10.3-10.9-14.5-27.4-17.2l-16-2.6c-23.4-3.8-48.1-12.1-48.1-43.3c0-27.8,28.3-44.5,62.5-44.5c34,0,59.8,17.2,64.4,42.6
					L1011.4,973.8z"/>
			</defs>
			<clipPath id="SVGID_00000119811796322558199410000009265965829296870020_">
				<use xlink:href="#SVGID_1_"  style="overflow:visible;"/>
			</clipPath>
			<g style="clip-path:url(#SVGID_00000119811796322558199410000009265965829296870020_);">
				<g>
					<defs>
						<rect id="SVGID_00000094597447616763099610000017285630473297638834_" x="-233" y="793.5" width="1586.1" height="419.8"/>
					</defs>
					<clipPath id="SVGID_00000016035087104177757860000012844453971156702625_">
						<use xlink:href="#SVGID_00000094597447616763099610000017285630473297638834_"  style="overflow:visible;"/>
					</clipPath>
					<g style="clip-path:url(#SVGID_00000016035087104177757860000012844453971156702625_);">
						
							<image style="overflow:visible;" width="6609" height="1750" xlink:href="F80BF669.png"  transform="matrix(0.24 0 0 0.24 -233.04 793.44)">
						</image>
					</g>
				</g>
			</g>
			<g style="clip-path:url(#SVGID_00000119811796322558199410000009265965829296870020_);">
				<g>
					<defs>
						<rect id="SVGID_00000008845745881004048660000016996293008620863875_" x="-139.8" y="811.2" width="1360.7" height="402.1"/>
					</defs>
					<clipPath id="SVGID_00000132078553862976730480000002894662325366748821_">
						<use xlink:href="#SVGID_00000008845745881004048660000016996293008620863875_"  style="overflow:visible;"/>
					</clipPath>
					<g style="clip-path:url(#SVGID_00000132078553862976730480000002894662325366748821_);">
						
							<image style="overflow:visible;" width="5670" height="1676" xlink:href="F80BF66B.png"  transform="matrix(0.24 0 0 0.24 -139.92 811.2)">
						</image>
					</g>
				</g>
			</g>
		</g>
		<g>
			
				<linearGradient id="SVGID_00000034085327846029303730000014961910858420314808_" gradientUnits="userSpaceOnUse" x1="213.6283" y1="394.9245" x2="867.2965" y2="394.9245">
				<stop  offset="0" style="stop-color:#E11D48"/>
				<stop  offset="0.2463" style="stop-color:#E62D3E"/>
				<stop  offset="0.7285" style="stop-color:#F25826"/>
				<stop  offset="1" style="stop-color:#F97316"/>
			</linearGradient>
			
				<rect x="213.6" y="299.6" style="opacity:0.75;fill:url(#SVGID_00000034085327846029303730000014961910858420314808_);" width="653.7" height="190.7"/>
			<g>
				
					<linearGradient id="SVGID_00000030446000168082411910000005475137136819062965_" gradientUnits="userSpaceOnUse" x1="213.7816" y1="158.3701" x2="867.2965" y2="158.3701">
					<stop  offset="0" style="stop-color:#E11D48;stop-opacity:0.7"/>
					<stop  offset="1" style="stop-color:#E11D48"/>
				</linearGradient>
				<polygon style="fill:url(#SVGID_00000030446000168082411910000005475137136819062965_);" points="867.3,204.3 213.8,303.1 
					213.8,112.5 867.3,13.6 				"/>
			</g>
			
				<linearGradient id="SVGID_00000157286644357184029880000011957344291201620620_" gradientUnits="userSpaceOnUse" x1="213.705" y1="635.0032" x2="867.2199" y2="635.0032">
				<stop  offset="0" style="stop-color:#F97316"/>
				<stop  offset="1" style="stop-color:#F97316;stop-opacity:0.7"/>
			</linearGradient>
			<polygon style="fill:url(#SVGID_00000157286644357184029880000011957344291201620620_);" points="867.2,680.9 213.7,779.8 
				213.7,589.1 867.2,490.3 			"/>
			<path class="st6" d="M231.8,517.5h-9.1c-5,0-9.1-4.1-9.1-9.1V90.8c0-5,4.1-9.1,9.1-9.1h9.1c5,0,9.1,4.1,9.1,9.1v417.6
				C240.9,513.4,236.8,517.5,231.8,517.5z"/>
			<path class="st7" d="M858.2,708.1h-9.1c-5,0-9.1-4.1-9.1-9.1V281.4c0-5,4.1-9.1,9.1-9.1h9.1c5,0,9.1,4.1,9.1,9.1v417.6
				C867.3,704.1,863.2,708.1,858.2,708.1z"/>
			<path class="st7" d="M231.8,789.8h-9.1c-5,0-9.1-4.1-9.1-9.1V581c0-5,4.1-9.1,9.1-9.1h9.1c5,0,9.1,4.1,9.1,9.1v199.7
				C240.9,785.8,236.8,789.8,231.8,789.8z"/>
			<g>
				<path class="st6" d="M858.2,217.9h-9.1c-5,0-9.1-4.1-9.1-9.1V9.1c0-5,4.1-9.1,9.1-9.1h9.1c5,0,9.1,4.1,9.1,9.1v199.7
					C867.3,213.8,863.2,217.9,858.2,217.9z"/>
			</g>
		</g>
	</g>
</g>
</svg>
